<?xml version="1.0" encoding="utf-8"?>
<!-- Generator: Adobe Illustrator 20.1.0, SVG Export Plug-In . SVG Version: 6.00 Build 0)  -->
<svg version="1.1" id="Capa_1" xmlns="http://www.w3.org/2000/svg" xmlns:xlink="http://www.w3.org/1999/xlink" x="0px" y="0px"
	 viewBox="0 0 822 368.5" style="enable-background:new 0 0 822 368.5;" xml:space="preserve">
<style type="text/css">
	.st0{fill:none;stroke:#67217A;stroke-width:1.8436;stroke-miterlimit:10;}
	.st1{fill:#67217A;}
</style>
<g>
	<g>
		<path class="st0" d="M133.4,209.6h16.2c0-6.4,0.1-11.1,0.3-13.8h-16.1C133.5,198.4,133.4,203.1,133.4,209.6z"/>
		<path class="st0" d="M180.3,195.8c0,3.8-0.1,8.4-0.2,13.8h15.9c0-5.5-0.1-10.2-0.3-13.8H180.3z"/>
		<path class="st0" d="M194,241.6h-16.8c-1.8,6.3-4.3,10.3-7.7,12v15.2C182.4,267.2,190.6,258.1,194,241.6z"/>
		<path class="st0" d="M159.9,264.4c0-3.8,0-7.5,0-11.3c-3.5-2-6.1-5.8-7.8-11.5h-16.7c3.5,16.2,11.7,25.2,24.5,27.1
			C159.9,267.2,159.9,265.9,159.9,264.4z"/>
	</g>
	<g>
		<path class="st1" d="M25.4,204.7c0.4,0.4,0.9,0.7,1.5,1.1c1.9,1.5,3.7,2.6,5.6,3.5c2.1,0.7,3.7,0.6,5.4-0.7
			c0.2-0.4,0.6-0.7,0.7-1.1c0.2,0.9,0.7,1.9,1.5,2.6c1.5,1.1,3.2,1.5,5.2,0.7c2.1-0.9,3.9-1.9,5.8-3.2c0.6-0.6,1.1-0.9,1.7-1.3
			c3-2.4,5.1-5.6,6.4-9.5c1.3-3.4,1.5-7.1,0.7-10.7c-0.2-1.3-0.6-2.4-1.1-3.4h-0.2c-0.6,0.7-1.1,1.3-1.5,2.1
			c-0.7,0.9-1.7,1.9-2.6,2.6c-1.5,1.3-3.2,2.4-5,3.7c-1.3,0.7-2.4,1.7-3.7,2.6c-2.4,2.2-4.5,4.9-6,7.9c-0.2,0.6-0.4,0.9-0.6,1.3
			c-0.2-0.9-0.4-1.9-0.7-2.6c-1.5-3.2-3.4-5.8-5.8-8c-1.3-1.1-2.4-2.1-3.7-3c-1.7-1.1-3.4-2.4-4.9-3.7c-0.9-0.7-1.9-1.7-2.4-2.8
			c-0.6-0.6-0.9-1.3-1.5-2.1H20c-0.7,1.1-1.1,2.2-1.3,3.4c-0.9,3.7-0.7,7.3,0.6,10.9C20.3,198.7,22.4,202.1,25.4,204.7z"/>
		<path class="st1" d="M35.7,143.4c1.1,2.1,2.6,3.7,4.1,5.2c1.5,1.5,3.2,2.1,5.2,1.5c0.4-0.4,0.9-0.6,1.3-0.9c-0.2,0.9,0,1.9,0.4,3
			c0.9,1.7,2.6,2.6,4.7,2.6c2.1,0,4.5-0.2,6.6-0.9c0.7-0.2,1.3-0.4,2.1-0.6c3.6-1.1,6.7-3.4,9.3-6.6c2.4-2.8,3.9-6,4.7-9.7
			c0.2-1.1,0.2-2.2,0.2-3.6H74c-0.9,0.4-1.5,0.9-2.2,1.3c-0.9,0.7-2.1,1.3-3.4,1.7c-1.9,0.6-3.9,1.1-6,1.5c-1.5,0.4-3,0.7-4.5,1.3
			c-3.2,0.9-6,2.6-8.4,5c-0.6,0.4-0.9,0.7-1.1,1.1c0.2-0.9,0.2-1.9,0.2-3c-0.2-3.4-0.9-6.6-2.6-9.5c-0.6-1.5-1.5-2.8-2.2-3.9
			c-1.3-1.9-2.4-3.6-3.2-5.4c-0.7-1.1-1.1-2.1-1.3-3.4c-0.2-0.9-0.4-1.7-0.7-2.4l-0.2-0.2c-0.9,0.6-1.7,1.5-2.4,2.6
			c-2.1,3.2-3.2,6.5-3.4,10.1c-0.4,4.1,0.4,7.9,2.1,11.4C34.9,142.3,35.3,142.8,35.7,143.4z"/>
		<path class="st1" d="M27.6,172.6c1.3,1.7,3,3.2,4.9,4.5c1.7,1.3,3.6,1.3,5.2,0.6c0.6-0.4,0.9-0.7,1.3-1.1c0,0.9,0.2,1.9,0.9,2.8
			c1.1,1.5,2.8,2.1,4.9,1.9c2.2-0.4,4.3-1.1,6.4-2.1c0.7-0.2,1.3-0.6,1.9-0.7c3.4-1.9,6.2-4.5,8.2-8c1.9-3.2,3-6.5,3-10.3
			c0.2-1.1,0-2.4-0.4-3.5h-0.2c-0.7,0.6-1.3,1.1-1.9,1.7c-0.9,0.7-2.1,1.5-3.2,2.1c-1.7,0.9-3.6,1.9-5.6,2.6
			c-1.5,0.4-2.8,1.1-4.3,1.9c-2.8,1.5-5.4,3.7-7.5,6.4c-0.4,0.6-0.6,0.9-0.9,1.5c0-1.1,0-2.1-0.2-3c-0.7-3.4-2.1-6.4-4.1-9.2
			c-0.9-1.1-1.9-2.4-3-3.6c-1.5-1.5-2.8-3.2-3.9-4.7c-0.9-1.1-1.5-2.1-1.9-3.2c-0.4-0.9-0.7-1.7-1.1-2.4H26c-0.8,0.7-1.5,1.9-1.9,3
			c-1.5,3.4-2.1,6.9-1.7,10.7c0.2,3.9,1.5,7.5,3.9,10.7C26.5,171.4,27.1,172,27.6,172.6z"/>
		<path class="st1" d="M50.8,268.5c2.2,0,3.7-0.9,4.7-2.6c0.2-0.4,0.4-0.7,0.4-1.1c0.6,0.6,1.3,0.9,2.1,1.3c1.9,0.7,3.6,0.2,5.2-1.1
			c1.5-1.7,2.8-3.4,4.1-5.2c0.4-0.7,0.7-1.3,0.9-1.7c1.9-3.5,2.6-7.3,2.4-11.4c-0.4-3.6-1.5-7.1-3.4-10.1c-0.7-1.1-1.5-2.1-2.4-2.6
			h-0.2c-0.2,0.9-0.6,1.7-0.6,2.4c-0.4,1.3-0.7,2.4-1.3,3.6c-1.1,1.9-2.1,3.4-3.4,5.2c-0.7,1.3-1.7,2.6-2.4,3.9
			c-1.5,3-2.4,6.2-2.6,9.5c0,0.4,0,0.8,0,1.1c-0.4-0.6-0.9-1.1-1.5-1.7c-2.4-2.4-5.2-4.1-8.4-5.2c-1.5-0.6-3-0.9-4.5-1.3
			c-2.1-0.4-3.9-0.9-6-1.7c-1.1-0.4-2.2-0.9-3.2-1.5c-0.7-0.6-1.5-0.9-2.2-1.3h-0.2c-0.2,1.1-0.2,2.2,0,3.6c0.7,3.6,2.2,6.9,4.7,9.7
			c2.4,3.2,5.6,5.4,9.4,6.7c0.6,0,1.3,0.2,1.9,0.6C46.5,268.1,48.8,268.5,50.8,268.5z"/>
		<path class="st1" d="M32.7,239c2.1,0.9,4.3,1.5,6.4,1.9c2.2,0.2,3.7-0.4,5.1-1.9c0.2-0.6,0.4-0.9,0.6-1.5c0.4,0.7,1.1,1.5,1.9,1.9
			c1.9,0.9,3.6,0.6,5.2-0.6c1.7-1.3,3.4-2.8,4.7-4.5c0.6-0.7,0.9-1.3,1.3-1.7c2.2-3.4,3.4-6.9,3.7-11c0.2-3.5-0.6-7.1-2.1-10.5
			c-0.6-1.1-1.1-2.1-2.1-3l-0.2,0.2c-0.4,0.7-0.7,1.5-0.9,2.2c-0.6,1.3-1.1,2.2-1.7,3.4c-1.3,1.5-2.4,3.2-3.9,4.9
			c-0.9,1.1-2.1,2.2-2.8,3.5c-2.1,2.8-3.2,5.8-3.7,9.2c-0.2,0.4-0.2,0.9-0.2,1.3c-0.6-0.7-0.9-1.5-1.5-2.2c-2.1-2.6-4.7-4.7-7.9-6.2
			c-1.3-0.7-2.6-1.3-4.1-1.7c-2.1-0.7-3.9-1.7-5.8-2.4c-1.1-0.6-2.2-1.1-3-2.1c-0.7-0.6-1.3-1.1-2.1-1.5h-0.2
			c-0.2,1.1-0.4,2.2-0.4,3.5c0.2,3.7,1.3,7.1,3.4,10.3c2.1,3.4,4.9,5.8,8.4,7.7C31.4,238.4,32.1,238.8,32.7,239z"/>
		<path class="st1" d="M70.1,292.8c2.1-0.6,3.4-1.7,4.1-3.6c0-0.4,0.2-0.9,0.2-1.3c0.6,0.6,1.3,0.9,2.4,1.1c1.9,0.2,3.6-0.6,4.7-2.2
			c1.3-1.9,2.2-3.7,3-6c0.2-0.6,0.4-1.3,0.7-1.9c0.9-3.7,0.9-7.7,0-11.4c-1.1-3.7-2.8-6.7-5.4-9.4c-0.7-0.9-1.9-1.7-2.8-2.2
			l-0.2,0.2c0,0.9-0.2,1.7-0.2,2.6c0,1.1-0.2,2.4-0.6,3.6c-0.6,2.1-1.3,3.9-2.1,5.8c-0.7,1.5-1.1,2.8-1.5,4.5
			c-0.9,3.2-1.1,6.4-0.7,9.7c0.2,0.6,0.2,0.9,0.4,1.5c-0.7-0.7-1.3-1.3-2.1-1.7c-3-1.9-6.2-3-9.4-3.4c-1.7-0.4-3.2-0.4-4.7-0.4
			c-2.1,0-4.1-0.2-6.2-0.4c-1.3-0.2-2.4-0.6-3.6-0.9c-0.7-0.4-1.5-0.7-2.4-0.9l-0.2,0.2c0.2,1.1,0.4,2.2,0.7,3.4
			c1.5,3.6,3.6,6.4,6.6,8.6c3,2.6,6.5,4.1,10.5,4.7c0.8,0,1.3,0,2.1,0.2C65.8,293.4,68,293.2,70.1,292.8z"/>
		<path class="st1" d="M72.4,98.1c0.7,1.9,2.2,3,4.1,3.4c0.6,0,1.1-0.2,1.7-0.2c-0.6,0.7-0.7,1.7-0.9,2.8c0.2,1.9,1.1,3.4,3.2,4.3
			c1.9,0.9,3.9,1.7,6.2,2.1c0.7,0,1.5,0.2,2.1,0.4c3.9,0.4,7.7-0.2,11.4-1.9c3.4-1.5,6.2-3.7,8.4-6.7c0.7-0.9,1.3-2.1,1.7-3.2H110
			c-0.9,0-1.7,0-2.6,0.2c-1.1,0.2-2.4,0.2-3.7,0c-1.9-0.2-3.9-0.7-6-1.1c-1.5-0.6-3-0.7-4.7-0.9c-3.2-0.6-6.6,0-9.9,0.9
			c-0.4,0.2-1.1,0.4-1.5,0.6c0.6-0.7,1.1-1.5,1.3-2.4c1.5-3.2,2.2-6.5,2.1-9.9c-0.2-1.5-0.2-3-0.4-4.7c-0.4-2.1-0.6-4.1-0.7-6.2
			c0-1.1,0.2-2.4,0.6-3.6c0.2-0.9,0.4-1.7,0.4-2.6c0-0.2,0-0.2,0-0.2c-1.3,0.4-2.4,0.7-3.4,1.3c-3.2,2.1-5.8,4.5-7.5,7.9
			c-2.1,3.6-3,7.3-3,11.2c0,0.6,0,1.3,0.2,2.1C71.2,93.8,71.6,95.9,72.4,98.1z"/>
		<path class="st1" d="M49.9,115.5c0.6,2.2,1.5,4.3,2.6,6.2c1.1,1.7,2.8,2.6,4.7,2.6c0.6-0.2,1.1-0.4,1.7-0.6
			c-0.4,0.9-0.6,1.9-0.4,3c0.6,1.9,1.9,3,3.9,3.6c2.1,0.6,4.3,0.9,6.5,0.8c0.7,0,1.3,0,2.1,0c3.7-0.4,7.5-1.7,10.7-3.9
			c3-2.2,5.4-5.1,6.9-8.4c0.6-1.1,0.7-2.2,0.9-3.4l-0.2-0.2c-0.9,0.2-1.7,0.6-2.4,0.7c-1.3,0.4-2.4,0.7-3.6,0.9c-2.1,0-4.1,0-6.2,0
			c-1.7-0.2-3.2,0-4.7,0c-3.4,0.2-6.5,1.1-9.5,2.8c-0.4,0.4-0.9,0.6-1.3,0.9c0.4-0.9,0.7-1.9,0.9-2.8c0.6-3.4,0.6-6.5-0.2-9.9
			c-0.2-1.5-0.7-3-1.3-4.5c-0.7-1.9-1.3-3.9-1.7-6c-0.4-1.1-0.6-2.4-0.6-3.6c0.2-0.9,0.2-1.9,0-2.6V91c-1.1,0.6-2.2,1.1-3,2.1
			c-2.8,2.4-4.9,5.4-6,9c-1.3,3.9-1.5,7.7-0.6,11.6C49.5,114.2,49.7,115,49.9,115.5z"/>
		<path class="st1" d="M94.8,308c0-0.4,0-0.7-0.2-1.1c0.7,0.4,1.7,0.6,2.6,0.6c1.9-0.2,3.4-1.3,4.1-3.2c0.9-1.9,1.5-4.1,1.9-6.4
			c0-0.7,0.2-1.5,0.2-2.1c0.4-3.9-0.4-7.7-2.2-11.2c-1.7-3.4-3.9-6-7.1-8c-0.9-0.7-2.1-1.3-3.2-1.5v0.2c0,0.7,0,1.7,0.2,2.4
			c0.4,1.3,0.4,2.4,0.2,3.7c-0.2,1.9-0.4,3.9-0.9,6c-0.4,1.5-0.6,3-0.6,4.7c-0.4,3.2,0,6.5,1.3,9.7c0,0.4,0.2,0.7,0.4,0.9
			c-0.7-0.4-1.5-0.7-2.1-0.9c-3.4-1.3-6.5-1.9-9.9-1.5c-1.5,0.2-3,0.2-4.5,0.6c-2.2,0.4-4.3,0.6-6.2,0.7c-1.3,0.2-2.4,0-3.7-0.2
			c-0.7-0.2-1.7-0.4-2.4-0.4l-0.2,0.2c0.2,1.1,0.7,2.2,1.5,3.2c1.9,3.2,4.7,5.4,7.9,7.1c3.6,1.9,7.3,2.8,11.2,2.4
			c0.7,0,1.3,0,2.1-0.2c2.2-0.2,4.3-0.7,6.4-1.7C93.5,311.3,94.4,309.8,94.8,308z"/>
		<path class="st1" d="M110.9,329.9c0.6-0.2,1.1-0.4,1.9-0.7c2.1-0.7,3.9-1.9,5.8-3.2c1.7-1.3,2.4-2.8,2.1-4.9
			c0-0.4-0.2-0.7-0.4-1.1c0.7,0.2,1.7,0.2,2.6-0.2c1.7-0.6,2.8-2.1,3.2-4.1c0.4-2.1,0.4-4.3,0.2-6.5c-0.2-0.8-0.2-1.3-0.4-2.1
			c-0.6-3.7-2.2-7.3-4.9-10.3c-2.4-2.8-5.4-4.9-9-6c-1.1-0.6-2.2-0.7-3.4-0.7l-0.2,0.2c0.4,0.9,0.6,1.7,1.1,2.4
			c0.4,1.1,0.7,2.2,0.9,3.5c0.4,1.9,0.6,3.9,0.7,6.2c0,1.5,0.2,3,0.4,4.5c0.6,3.2,1.9,6.4,3.7,9.2c0.4,0.2,0.6,0.6,0.7,0.9
			c-0.7-0.2-1.5-0.4-2.4-0.6c-3.4-0.4-6.7,0-9.7,1.1c-1.5,0.4-3,0.9-4.3,1.7c-2.1,0.9-3.9,1.7-5.8,2.2c-1.1,0.6-2.4,0.8-3.6,0.8
			c-0.9,0-1.9,0.2-2.6,0.4h-0.2c0.6,1.1,1.3,2.1,2.2,2.8c2.8,2.6,6,4.1,9.5,5C103.2,331.3,107.2,331.2,110.9,329.9z"/>
		<path class="st1" d="M115.6,79.2c0.4,1.1,0.9,2.1,1.7,3c0.2,0.2,0.6,0.4,0.9,0.7l-0.9,3.2l1.7,2.1c-0.2,0.6-0.6,0.7-0.6,1.3
			c-0.6,1.1-0.4,2.2,0.6,3.4c1.1,1.3,1.9,2.1,2.2,2.6c1.5,2.2,3.2,3.9,5.6,5.4c4.1,2.2,8.6,3.7,13.7,4.7c6.7,1.5,13.5,2.4,20.4,3
			c5.4,0.4,11,0,16.8-1.1c7.5-0.7,14.8-2.8,21.7-5.6c1.7-0.9,3.2-1.9,4.7-3.4c1.1-0.7,2.2-1.7,3.6-2.6c2.2-1.5,3.2-3.7,3-6.4
			c-0.2-0.7-0.2-1.5-0.2-2.1l1.1-1.9l-0.9-2.4l-0.2-0.2h0.2c0.2-0.4,0.7-0.9,1.3-1.7c1.7-2.2,2.8-5.4,3.6-10.1
			c0.6-4.5,0.7-7.7,0.7-9.5c-0.2-2.1-0.7-4.7-1.5-7.9c-0.9-3.4-3-6.7-6.2-10.1c-3-3.2-6.4-5.4-10.3-7.1c-4.1-1.7-8.4-2.4-12.5-2.1
			c-4.5-0.2-8.6,0.2-12.3,1.5c-1.7,0.4-3.4,0.9-5.1,1.5l2.1-4.3c-0.4-0.9-0.6-1.5-0.9-2.1c-0.6-1.1-1.1-1.9-2.1-2.6
			c-0.4-0.4-0.9-0.7-1.3-1.1l0.4-3.9l1.7,0.4l0.7-3.6l-2.4-0.4l0.2-2.4c-0.2-0.2-0.4-0.2-0.6-0.2c-0.2-0.2-0.4-0.2-0.6-0.2
			c-0.4-0.2-0.7-0.2-1.1-0.2h-0.2c-0.4,0-0.7,0-0.9,0.2c-0.4,0-0.6,0-0.7,0.2c-0.2,0-0.2,0-0.4,0.2V20c-0.2,0-0.4,0.2-0.6,0.4
			c-0.7,0-1.3,0-1.7,0.4c-0.2,0-0.2,0-0.2,0.4l0.6,2.4h1.9l0.7,4.1c-0.6,0.4-0.9,0.6-1.3,1.1c-1.1,0.7-1.9,1.9-2.4,3.2
			c-0.2,0.6-0.4,1.3-0.6,1.9c0.2,0.4,0.2,0.6,0.4,0.9c0.2,0.4,0.4,0.7,0.6,1.3c0.4,0.4,0.4,0.9,0.4,1.3h-0.2c-1.5-0.7-3-1.1-4.3-1.3
			c-4.1-1.1-8.2-1.5-12.5-1.5c-5.2-0.4-10.3,0.9-15,3.6c-1.7,0.9-3.4,2.1-4.9,3.6c-2.6,2.4-4.9,5.4-6.9,8.4c-3,4.7-4.3,9.9-4.1,15.5
			c0.2,3.7,0.7,6.9,1.7,9.5C114.8,77.7,115.4,79.1,115.6,79.2z M119.9,91.8c-0.2,0-0.4,0.2-0.4,0.2l-0.2,0.2
			c-0.2-0.2-0.2-0.2-0.4-0.6c0.4-0.9,0.6-1.9,0.7-2.8V89c0,0,0.2,0.2,0.4,0.2c0,0.2,0,0.2,0,0.2c0.4-0.4,0.6-0.6,0.9-1.1
			c1.1,0.4,2.1,0.6,3.2,0.9l-1.3,3.2C121.7,92.1,120.8,92,119.9,91.8z M203.1,98.1c-4.5,2.8-8.8,4.3-13.1,5.1
			c-4.1,0.7-8.8,1.5-13.7,2.2c-4.9,0.6-9.7,1.1-14.4,0.9c-7.7-0.7-15-1.7-22.1-3.2c-3-0.9-6-1.9-8.8-2.8c-2.4-0.9-4.7-2.1-6.9-3.2
			c3-1.9,6.2-3.6,9.4-4.5c8-2.6,16.1-3.9,24.3-3.9c4.3-0.4,8.6-0.4,12.9,0c0.6,0,0.9,0,1.3,0c6.9,0.4,13.3,1.3,19.5,2.8
			c2.4,0.7,4.9,1.7,7.3,2.8c1.9,0.7,3.7,1.9,5.8,2.8C204.1,97.4,203.7,97.8,203.1,98.1z M206.3,95.9c-0.6,0.4-0.9,0.6-1.3,0.9
			c-1.7-0.9-3.4-1.9-4.9-2.8c-3.2-1.1-6.2-2.1-9.2-3.2c-5.1-1.1-10.1-1.9-15.2-2.6c-2.4-0.2-4.7-0.4-6.9-0.6
			c-5.2-0.4-10.5-0.2-15.7,0.6c-5.6,0.7-10.7,1.7-15.5,2.6c-5,0.9-9.5,3-13.8,6c-0.6-0.4-0.9-0.6-1.3-1.1h-0.2
			c0-0.2,0.2-0.4,0.2-0.4c0.9-0.7,1.9-1.1,2.8-1.5c4.5-2.2,9-3.9,13.5-5c2.8-0.4,5.6-0.6,8.4-0.9c4.3-0.4,8.4-0.7,12.5-1.1
			c4.3-0.6,9-0.4,13.7,0.2c11.4,0.6,22.3,3.4,32.9,8.8V95.9z M133.7,84.5l12.5-3.7c0.4,0.4,0.7,0.6,0.9,0.9c0.2,0.4,0.4,0.7,0.6,1.1
			c0,0.2,0,0.4,0,0.6c-1.3,1.1-2.8,1.7-4.7,1.7c-2.4,0-4.7,0.6-6.7,1.7C134.8,86.9,134.1,86.2,133.7,84.5z M162.1,80.9l2.2-1.7
			l2.4,1.9l-2.4,1.5L162.1,80.9z M180.9,82.8l1.3-2.1l12.5,3.6c-0.2,0.6-0.4,0.7-0.4,1.1c-0.6,0.6-1.1,0.9-1.7,1.3
			c-3.6-1.1-7.3-2.1-11.4-3L180.9,82.8z M209.1,92.1V92c-0.2,0-0.2-0.2-0.4-0.2c-0.9,0.2-1.9,0.4-2.8,0.6l-1.3-3.2l3.9,0.2
			c0.2-0.2,0.2-0.4,0.4-0.4v-0.2c0.2,0.9,0.6,1.9,0.8,2.8C209.5,92,209.3,92,209.1,92.1z M210.4,83.2c0,0.2,0,0.2,0,0.4
			C209.9,84.1,209.9,83.7,210.4,83.2z M189.7,40.3c3,0.2,5.8,1.1,8.6,2.6c3.6,2.1,6.4,5,8.4,8.6c0.9,1.9,1.7,4.5,2.2,7.7
			c0,1.3,0.2,2.4,0.2,3.6v-0.6c0,0.6,0,0.4,0.2-0.6l-0.2,10.5c0-0.7,0-1.7,0-2.6V69c0-0.4,0-0.7,0-1.1c-0.2,4.1-0.9,7.5-2.2,10.7
			c-1.9-1.7-3.9-2.8-6.4-3.6c-0.9-0.2-1.7-0.4-2.6-0.6h-0.2c-1.3-0.4-1.9-0.7-2.1-1.1c2.4-11.4,2.6-19.5,0.6-23.9
			c-2.1-4.5-5.4-7.7-10.1-9.3C187.2,40,188.3,40.2,189.7,40.3z M167.2,54.9c0.6-7.5,0.9-11.4,1.1-11.8c0.9,0,2.1,0.2,3.2,0.2
			c4.7,0.4,8,1.3,10.5,2.8c2.2,1.3,4.1,2.8,5.2,4.1c1.1,1.5,2.2,4.5,3.4,9c0.9,4.7,0,8.8-2.8,12.3c-3.2,0.2-5,0-5.8-0.7
			c-1.5-1.5-2.8-2.8-3.7-3.9c-1.9,0.9-3.2,1.9-3.9,3c-0.7,0.9-1.7,1.1-3.2,0.7c-1.3-0.4-2.4-0.9-3.2-1.9c-0.2-0.2-0.4-0.6-0.6-0.7
			C166.6,66.9,166.5,62.6,167.2,54.9z M176.6,75.1c4.3,0,8.2,0.6,12.2,1.5l0.6,0.2h0.2c0.4,0,0.6,0.2,0.9,0.2l0.7,0.2
			c1.9,0.6,3.6,0.9,5.2,1.7c0.4,0,0.7,0.2,1.3,0.4c1.1,0.4,2.2,0.7,3.6,1.3c0.7,0.2,1.7,0.6,2.6,0.9c2.2,0.9,4.3,2.4,6.2,4.1
			c0.2,0.4,0.2,0.6,0.2,0.9c-0.2,0.4-0.6,0.7-0.7,1.3c-0.6-0.9-1.3-1.7-2.2-2.2c-5.8-2.8-11.8-4.9-18-6.4c-4.3-0.9-8.6-1.7-12.7-2.2
			c-9.7-0.9-19.6-0.6-29.4,0.7c-4.5,0.7-8.8,1.7-13.3,3c-3,0.9-6,2.1-8.8,3.4c-1.1,0.4-2.2,1.1-3.2,2.1c-1.3,1.1-2.4,1.5-3.4,1.1
			c0.2-0.6,0.2-1.1,0.6-1.3c0.7-0.9,1.7-1.9,2.8-2.6c4.5-2.8,9.2-4.7,14-5.4C147.7,74.4,161.2,73.6,176.6,75.1z M157.3,43.3
			c0.9,0,2.1-0.2,3-0.2c0.6,5.4,0.9,10.9,1.5,15.9c0.6,5.2,0.4,8.2-0.4,9.2c-1.3,1.1-3.2,2.1-5.4,2.8c-2.2-0.6-3.4-1.7-3.6-3.4
			c-1.9,0.6-4.3,2.1-7.3,4.5c-3.9,1.7-6.4,0.2-7.3-4.3c-0.2-0.8-0.4-1.3-0.4-1.9c0,0.4,0.2,0.9,0.4,1.5c-1.1-5.4-0.6-10.1,1.9-14.2
			C143.3,47.3,149.1,43.9,157.3,43.3z M118,64.8c0.6-4.3,1.9-8.6,4.3-13.1c0.9-1.9,2.2-3.6,3.6-5.1c3.7-3.6,8.2-5.8,13.5-6.4
			c0.9-0.2,2.1-0.4,3.2-0.4c-5,2.1-8.8,5.8-11,11.2c-0.2,0.6-0.6,1.3-0.7,1.9c0,0.2,0,0.4-0.2,0.6c0,0.6-0.2,0.9-0.2,1.3
			c-0.2,0-0.4,1.1-0.9,3.4c-0.6,2.1-0.7,4.7-0.6,7.5c0,3,0.2,5,0.7,6.5c0.4,1.3,0.6,2.1,0.7,2.2c-3.2,0.4-6,1.5-8.8,3.4
			c-0.2,0.4-0.4,0.4-0.6,0.6c-0.2,0-0.9-1.3-2.1-3.7C117.8,72.3,117.6,69,118,64.8z"/>
		<polygon class="st1" points="311.1,18.1 252.3,18.1 242.2,88.2 300.8,88.2 		"/>
		<path class="st1" d="M303.4,119.4l-9.2,58.2h21l5.4-34c0.2-1.9,0.7-3.2,1.5-4.1c0.9-1.1,1.9-1.7,2.8-1.7c1.1,0,2.1,0.4,2.6,1.1
			c0.7,0.6,0.9,1.5,0.9,2.4c0,0.2,0,0.6-0.2,1.3c0,0.2,0,0.4,0,0.6l-5.4,34.4h20.8l6.2-37.8c0.4-2.1,0.6-3.6,0.6-4.9
			c0.2-1.3,0.2-2.4,0.2-3.4c0-4.3-1.3-7.5-3.7-9.7c-2.4-2.2-6-3.4-10.5-3.4c-2.8,0-5.4,0.6-7.9,1.7c-2.6,1.3-4.9,3.2-7.1,5.2l0.9-6
			H303.4z"/>
		<path class="st1" d="M372.4,198.6c9.4,0,15.9-1.7,20-4.9c4.1-3.4,6.7-9.5,8.4-18.9l8.8-55.5h-20.2l-0.9,6
			c-1.7-2.6-3.4-4.7-5.2-5.6c-1.9-1.3-3.9-1.9-6.6-1.9c-6.5,0-12,3.7-16.5,10.9c-4.5,7.1-6.5,16.3-6.5,27.1c0,6,1.1,10.7,3.6,13.8
			c2.6,3.4,6.2,5,10.5,5c2.6,0,5.1-0.6,7.5-1.9c2.2-1.1,4.5-3,6.2-5.4l-1.3,9.7c-0.6,2.4-1.5,4.3-2.4,5.6c-1.1,1.3-2.6,1.9-4.5,1.9
			c-1.3,0-2.2-0.4-3.2-1.1c-0.9-0.6-1.3-1.5-1.1-2.8v-1.1h-17.8c0,0.2,0,0.6-0.2,0.9c0,0.7,0,1.1,0,1.3c0,5.8,1.9,10.1,5.2,12.7
			C359.5,197.2,364.9,198.6,372.4,198.6z M378.6,158.2c-1.3,0-2.1-0.6-2.6-1.5c-0.6-0.9-0.9-2.8-0.9-4.9c0-4.9,0.7-9,2.2-12.3
			c1.3-3.4,3.2-5,5.2-5c1.1,0,1.9,0.6,2.6,1.5c0.6,1.1,0.9,3,0.9,5.1c0,4.9-0.7,9-2.4,12.2C382.3,156.5,380.7,158.2,378.6,158.2z"/>
		<path class="st1" d="M436,179.3c7.1,0,13.1-1.9,17.6-6c4.5-3.9,6.9-9.3,7.5-16.3h-17.8c0,2.2-0.7,3.9-1.7,5
			c-1.1,1.1-2.4,1.5-4.5,1.5c-1.9,0-3.4-0.4-4.3-1.5c-0.9-0.9-1.3-2.4-1.3-4.5c0-0.6,0-1.5,0.2-2.4c0.2-1.1,0.2-2.4,0.4-4.3H463
			c0.4-2.4,0.6-4.7,0.7-6.5c0.2-2.1,0.2-3.7,0.2-5.4c0-6.5-2.1-11.8-6.2-15.5c-4.3-3.7-9.9-5.6-17-5.6c-9,0-16.1,3.2-21.1,9.9
			c-5.4,6.4-8,15.1-8,26.2c0,8.2,2.1,14.6,6.4,18.9C422,177.1,428,179.3,436,179.3z M436.6,133.7c1.1-1.7,2.8-2.4,4.9-2.4
			c1.7,0,2.8,0.6,3.7,1.5c0.7,0.9,1.1,2.4,1.1,4.1c0,0.4,0,0.9,0,1.7c0,0.4-0.2,1.3-0.2,2.6h-12.5
			C434.4,137.8,435.3,135.2,436.6,133.7z"/>
		<path class="st1" d="M491.4,143.6c0.2-1.9,0.7-3.2,1.5-4.3c0.7-0.9,1.9-1.5,2.8-1.5c1.1,0,2.1,0.4,2.6,0.9
			c0.6,0.6,0.7,1.7,0.7,2.6c0,0.2,0,0.6-0.2,1.3c0,0.2,0,0.4,0,0.6l-5.4,34.4h20.9l6-38c0.4-1.9,0.6-3.4,0.6-4.7
			c0.2-1.5,0.2-2.4,0.2-3.4c0-4.3-1.1-7.5-3.7-9.7c-2.4-2.2-5.8-3.4-10.3-3.4c-3,0-5.6,0.6-8,1.7c-2.4,1.3-4.9,3.2-6.9,5.2l0.9-6
			h-18.9l-9.2,58.2H486L491.4,143.6z"/>
		<path class="st1" d="M544.3,111.6c3.7,0,6.7-1.3,9.4-3.9c2.4-2.8,3.7-6.4,3.9-10.3c0-3.4-1.1-5.8-2.8-7.7
			c-1.9-1.9-4.1-2.8-6.9-2.8c-3.7,0-7.1,1.3-9.5,4.1c-2.4,2.8-3.7,6.4-3.7,10.3c0,3.4,1.1,5.6,2.8,7.7
			C539.1,110.8,541.5,111.8,544.3,111.6z"/>
		<polygon class="st1" points="553.3,119.4 532.2,119.4 523,177.6 544.2,177.6 		"/>
		<path class="st1" d="M561.4,172.7c4.1,4.3,10.3,6.4,18.3,6.6c7.1,0,13.1-1.9,17.6-6c4.5-3.9,6.7-9.3,7.3-16.3H587
			c-0.2,2.1-0.7,3.9-1.7,5c-0.9,0.9-2.6,1.5-4.5,1.5c-1.9,0-3.4-0.6-4.3-1.5c-0.9-0.9-1.3-2.2-1.3-4.5c0-0.6,0-1.5,0.2-2.4
			c0.2-0.9,0.2-2.6,0.4-4.3h30.9c0.4-2.6,0.6-4.7,0.7-6.5c0.2-2.1,0.2-3.7,0.2-5.4c0-6.5-2.1-11.6-6.2-15.5
			c-4.3-3.7-10.1-5.6-17-5.6c-9,0-15.9,3.2-21.1,9.9c-5.2,6.4-8,15-8,26C555.2,162.1,557.4,168.3,561.4,172.7z M580.1,133.7
			c1.3-1.7,2.8-2.4,5-2.4c1.7,0,2.8,0.4,3.6,1.5c0.7,0.9,1.3,2.4,1.3,4.1c0,0.4,0,0.9,0,1.7c0,0.6,0,1.3-0.2,2.6h-12.5
			C577.8,137.6,579,135.2,580.1,133.7z"/>
		<path class="st1" d="M634.3,151.6c0.7-5.2,2.2-8.8,4.7-10.5c2.4-1.9,6.2-2.8,11.2-2.8h0.6l3.4-20.6c-3.6,0.2-6.7,1.1-9.5,2.8
			c-3,1.7-5.6,3.9-8,6.9l1.5-8.2h-20l-9.2,58.2h21.3L634.3,151.6z"/>
		<path class="st1" d="M658.8,172.7c4.3,4.3,10.5,6.4,18.5,6.6c8.6-0.2,15.3-3.4,20.6-9.9c5-6.5,7.7-15.1,7.7-26.4
			c0-8.2-2.2-14.4-6.5-18.9c-4.1-4.3-10.5-6.4-18.5-6.4c-8.6,0-15.3,3.2-20.6,9.9c-5,6.5-7.5,15.1-7.5,26.2
			C652.5,162.3,654.5,168.4,658.8,172.7z M675.7,141.3c1.3-4.1,3.2-6,5.2-6c1.1,0,2.1,0.6,2.8,1.5c0.6,0.9,0.9,2.8,0.9,4.9
			c0,5.2-0.7,9.9-2.4,14c-1.5,3.9-3.2,5.8-5.2,6c-1.3,0-2.1-0.6-2.6-1.7c-0.6-1.1-0.9-2.6-0.9-4.7
			C673.4,150.1,674.2,145.4,675.7,141.3z"/>
		<path class="st1" d="M725.8,178.9c6.7,0,12.4-1.7,16.7-5.4c4.1-3.7,6.2-8.4,6.2-14.6c0-3-0.7-5.8-2.1-8c-1.3-2.4-4.7-5.2-9.5-9
			c-0.4-0.4-0.9-0.9-1.9-1.5c-2.4-1.5-3.6-3-3.6-4.3c0-0.9,0.4-1.7,1.3-2.2c0.7-0.7,2.1-1.1,3.4-0.9c1.5,0,3,0.4,4.9,0.9
			c1.7,0.7,3.6,1.9,5.6,3.4l3.7-15.2c-2.6-1.5-5.2-2.4-8.2-3.2c-3-0.7-5.6-1.1-8.6-1.1c-6.5,0-11.8,1.9-15.9,5.4
			c-3.9,3.6-6,8.4-6,14c0,3.4,0.9,6.2,2.4,8.6c1.7,2.2,4.5,4.9,8.2,7.3c0.4,0.2,1.1,0.6,1.7,1.1c3.2,2.1,5,3.7,5,5.6
			c0,0.9-0.4,1.9-1.5,2.4c-0.7,0.6-1.9,0.9-3.2,0.9c-1.9,0-3.9-0.6-6-1.5c-2.2-0.9-4.5-2.6-6.7-4.7l-6,15.7c3,2.1,6.2,3.7,9.7,4.7
			C719.1,178.4,722.5,178.9,725.8,178.9z"/>
		<path class="st1" d="M380.5,202.1l-6.2,38.7c-1.9-2.8-3.6-4.7-5.4-6c-2.2-1.3-4.5-1.9-7.3-1.9c-6.7,0-12.5,3.9-17.2,11.6
			c-4.7,8-6.9,17.6-6.9,29.4c0,6.4,1.3,11.4,3.7,14.8c2.6,3.6,6.4,5.2,10.8,5.2c2.6,0,5.1-0.6,7.7-1.7c2.2-1.3,4.7-3.4,7.1-6.2
			l-0.7,6.6H387l14.2-90.5H380.5z M368.9,270.6c-1.7,3.7-3.4,5.4-5.4,5.4c-1.5,0-2.6-0.6-3.2-1.5c-0.6-0.9-0.9-2.8-0.9-5.2
			c0-5.2,0.8-9.5,2.1-13.3c1.7-3.6,3.4-5.4,5.4-5.4c1.3,0,2.6,0.6,3.2,1.9c0.7,1.1,1.1,2.8,0.9,5.2
			C370.9,262.9,370.2,267,368.9,270.6z"/>
		<path class="st1" d="M418.4,271.1l5.6-36.9h-21l-5.4,34.8c-0.2,1.3-0.4,2.6-0.6,3.9c-0.2,1.1-0.2,2.2-0.2,3.6
			c0,5.4,1.9,9.5,5.8,12.7c3.9,3.4,9.4,4.9,16.1,4.7c8.2,0,15-2.2,19.8-6.2c4.7-4.1,7.9-10.3,9.2-18.7l5.6-34.8h-21.1l-5.8,36.9
			c-0.2,1.3-0.8,2.2-1.7,3.2c-0.9,0.7-1.9,1.1-3.2,1.1c-1.1,0-1.9-0.4-2.4-0.9c-0.6-0.6-0.9-1.3-0.9-2.2c0-0.4,0-0.6,0-0.7
			S418.3,271.3,418.4,271.1z"/>
		<path class="st1" d="M491.6,265.7c-1.3-2.2-4.7-5.2-9.3-8.8c-0.6-0.4-1.1-0.9-2.1-1.7c-2.2-1.5-3.4-2.8-3.4-4.1
			c0-1.1,0.4-1.9,1.3-2.6c0.7-0.6,1.9-0.9,3.2-0.7c1.7,0,3.2,0.4,4.9,0.9c1.9,0.7,3.7,2.1,5.6,3.6l3.7-15.2c-2.4-1.5-5.2-2.6-8-3.4
			c-3-0.7-5.8-1.1-8.6-1.1c-6.5,0-11.8,1.9-15.9,5.4c-4.1,3.7-6,8.6-6,14.2c0,3.4,0.7,6,2.2,8.4c1.9,2.4,4.5,4.9,8.4,7.5
			c0.4,0.2,0.9,0.6,1.5,0.9c3.4,2.1,5.1,3.9,5.1,5.6c0,0.9-0.4,1.9-1.3,2.6c-0.7,0.6-2.1,0.9-3.4,0.9c-1.7,0-3.9-0.6-6-1.7
			c-2.1-0.9-4.5-2.4-6.5-4.5l-6,15.5c2.8,2.1,6.2,3.6,9.7,4.7c3.4,1.1,6.9,1.7,10.1,1.7c6.9,0,12.5-1.9,16.8-5.4
			c3.9-3.7,6.2-8.6,6.2-14.6C493.8,270.8,493.1,268.1,491.6,265.7z"/>
		<polygon class="st1" points="538.6,234.3 531.1,234.3 533.7,217.3 512.4,217.3 509.9,234.3 502.6,234.3 499.6,252.6 506.9,252.6 
			500.6,292.5 521.7,292.5 528.1,252.6 535.6,252.6 		"/>
		<path class="st1" d="M542.5,234.3l-9.2,58h21.3l3.9-25.8c0.9-5.1,2.4-8.6,4.7-10.3c2.6-2.1,6.4-3,11.2-3h0.7l3.4-20.6
			c-3.6,0.2-6.7,1.1-9.7,3c-2.8,1.5-5.6,3.9-7.9,6.7l1.3-8.1H542.5z"/>
		<path class="st1" d="M609.5,212.2c0-3.4-1.1-5.8-2.8-7.7c-1.7-1.9-4.1-2.8-6.9-2.8c-3.7,0-6.9,1.3-9.5,4.1
			c-2.6,2.8-3.7,6.4-3.7,10.3c0,3.2,1.1,5.6,2.8,7.7c1.7,2.1,4.1,3,6.9,2.6c3.7,0,6.7-1.3,9.4-3.9
			C608,219.7,609.3,216.1,609.5,212.2z"/>
		<polygon class="st1" points="605.2,234.3 583.8,234.3 574.8,292.5 596,292.5 		"/>
		<path class="st1" d="M656.4,292.3l9.4-58h-21l-1.1,6.4c-1.5-2.6-3.4-4.7-5.2-6c-2.1-1.3-4.5-2.1-7.1-2.1c-6.9,0-12.7,3.9-17.2,12
			c-4.7,7.9-7.1,17.6-7.1,29.2c0,6.4,1.5,11.4,3.9,15c2.4,3.6,6.2,5.4,10.7,5.4c2.6,0,5.2-0.6,7.5-2.1c2.6-1.3,4.9-3.2,7.5-6.2
			l-0.7,6.4H656.4z M632.7,275.8c-1.1,0-2.1-0.6-3-1.9c-0.6-1.1-0.9-3-0.9-5c0-4.9,0.7-9.2,2.4-12.7c1.5-3.6,3.2-5.2,5.4-5.2
			c1.3,0,2.2,0.6,2.8,1.5c0.6,1.1,0.9,2.8,0.9,5c0,5-0.7,9.4-2.2,12.9C636.6,273.9,634.7,275.6,632.7,275.8z"/>
		<polygon class="st1" points="700.8,202.1 679.6,202.1 665.4,292.6 686.5,292.6 		"/>
		<path class="st1" d="M739.8,288.3c4.5-3.9,6.7-9.3,7.3-16.3h-17.6c-0.2,2.1-0.7,3.7-1.7,5.1c-0.9,0.9-2.6,1.5-4.5,1.5
			c-1.9,0-3.4-0.6-4.3-1.5c-0.9-1.1-1.3-2.4-1.3-4.5c0-0.6,0-1.7,0.2-2.6c0.2-0.9,0.2-2.4,0.4-4.3h30.9c0.4-2.4,0.6-4.5,0.7-6.6
			c0.2-1.9,0.2-3.5,0.2-5.4c0-6.4-2.1-11.6-6.2-15.5c-4.3-3.6-9.9-5.6-17-5.6c-9,0-15.9,3.4-21.1,10.1c-5.2,6.2-8,15-8,26
			c0,8.4,2.2,14.6,6.2,18.9c4.1,4.5,10.3,6.7,18.3,6.5C729.4,294.3,735.4,292.3,739.8,288.3z M722.8,248.5c1.1-1.5,2.6-2.2,4.9-2.2
			c1.7,0,2.8,0.4,3.6,1.3c0.9,0.9,1.3,2.4,1.3,4.3c0,0.4,0,0.9,0,1.5c0,0.6,0,1.3-0.2,2.8h-12.5C720.4,252.6,721.5,250,722.8,248.5z
			"/>
		<path class="st1" d="M782.1,256.9c-0.4-0.4-0.9-0.9-1.9-1.7c-2.4-1.5-3.6-2.8-3.6-4.1c0-1.1,0.4-1.9,1.3-2.6
			c0.7-0.6,2.1-0.9,3.4-0.7c1.5,0,3,0.4,4.9,0.9c1.7,0.7,3.6,2.1,5.6,3.6l3.7-15.2c-2.6-1.5-5.2-2.6-8.2-3.4c-3-0.7-5.6-1.1-8.6-1.1
			c-6.5,0-11.8,1.9-15.9,5.4c-3.9,3.7-6,8.6-6,14.2c0,3.4,0.9,6,2.4,8.4c1.7,2.4,4.5,4.9,8.2,7.5c0.4,0.2,1.1,0.6,1.7,0.9
			c3.2,2.1,5.1,3.9,5.1,5.6c0,0.9-0.4,1.9-1.5,2.6c-0.7,0.6-1.9,0.9-3.2,0.9c-1.9,0-3.9-0.6-6-1.7c-2.2-0.9-4.5-2.4-6.7-4.5l-6,15.5
			c3,2.1,6.2,3.6,9.7,4.7c3.6,1.1,6.9,1.7,10.3,1.7c6.7,0,12.4-1.9,16.7-5.4c4.1-3.7,6.2-8.6,6.2-14.6c0-3.2-0.7-5.8-2.1-8.2
			C790.4,263.5,787,260.5,782.1,256.9z"/>
		<path class="st1" d="M279.6,279.9l-2,12.6h21l5.4-34c0.2-1.9,0.7-3.2,1.5-4.1c0.9-1.1,1.9-1.7,2.8-1.7c1.1,0,2.1,0.4,2.6,1.1
			c0.7,0.6,0.9,1.5,0.9,2.4c0,0.2,0,0.6-0.2,1.3c0,0.2,0,0.4,0,0.6l-5.4,34.4H327l6.2-37.8c0.4-2.1,0.6-3.6,0.6-4.9
			c0.2-1.3,0.2-2.4,0.2-3.4c0-4.3-1.3-7.5-3.7-9.7c-2.4-2.2-6-3.4-10.5-3.4c-2.8,0-5.4,0.6-7.9,1.9c-2.6,1.1-4.9,3-7.1,5.1l0.9-6
			h-18.9l-6.6,41.9c-0.7,0.2-1.5,0.5-2.4,0.9c-0.9,0.4-2.2,0.7-3.4,0.9c-0.4,0-0.8,0.1-1.2,0.1l23.3-159.8h-7.4
			c-0.3-0.3-0.6-0.6-0.9-0.7c0-0.2-0.2,0-0.2,0.2c0,0.2-0.1,0.4-0.2,0.6h-50.2l-5.8,39.9c-0.4-0.7-0.8-1.4-1.3-2.1
			c-1.7-2.4-4.1-4.1-6.9-5c-5.4-1.7-10.3-0.9-14.6,2.2l-9.2-8.4l0.6-1.3l-7.3-6.5l-0.9,0.9c-5.4-5-10.8-10.1-16.1-15.2
			c-0.6-0.4-0.9-0.7-1.5-0.9c-0.7-0.4-1.7-0.7-2.6-0.9l-0.6-1.9l-2.1-0.7l0.2-0.9l2.2-0.2l0.6-3.7l-1.1-0.7c-4.3,0-8.6,0.2-12.9,0.4
			c-0.2,0-0.4,0-0.7-0.2l-0.2,4.3l2.4,0.2l0.2,1.3l-2.2,0.9c0,0.2-0.2,0.4-0.4,0.6c0,0,0,0.2-0.2,0.4c0,0-0.2,0.2-0.4,0.4
			c-0.4-0.2-0.6-0.2-0.7,0c-1.3,0.2-2.2,0.9-2.8,1.9c-0.6,0.7-0.7,1.5-1.1,2.2L137.1,138l-1.1-0.7l-7.3,6.4l0.7,1.3l-9,8.4
			c-2.2-0.9-4.5-1.9-6.7-2.6c-0.7-0.2-1.3-0.4-1.9-0.6c-2.1,0-4.1,0.2-6,1.1c-6.5,2.8-10.1,7.7-10.7,14.6c-0.2,4.1,1.1,7.7,3.9,10.8
			c0.7,0.9,1.7,1.7,2.6,2.2c2.8,2.2,6.2,3.4,9.9,3.7c5.2,0.2,9.5-1.9,13.1-5.8c1.7-2.2,2.8-4.5,2.8-7.1c0.2-2.1,0-4.1-0.2-6.2
			c-0.2-1.7-0.6-3-1.3-4.5c-0.4-0.7-0.7-1.5-1.3-2.1l8.6-7.9l3.2,2.8l1.3-1.3c3.4,3.6,7.1,6.9,10.9,9.7c1.7,1.3,3.2,2.4,4.7,3.7
			c0.7,0.6,1.3,1.1,1.9,1.7c0.7,0.6,1.5,1.1,2.2,1.5l0.4,2.4l2.1,0.2c0.2,12.7,0.2,20,0.2,21.7c0,6,0,12,0,17.9h-36.7v-9.2
			c-0.4,0-0.6,0-0.7,0h-0.2c-0.4,0-0.6,0-0.7,0c-3,0-4.7,0-5.2,0v0.2v6.9l-14-5c0.4-0.7,0.4-1.3,0.4-1.9c0-0.4-0.2-0.6-0.6-0.7v0.2
			l-6.7,0.2c-0.2,0.4-0.4,0.6-0.4,0.6c0,0.2,0.7,0.9,2.2,2.2c1.5,1.5,2.6,2.2,3,2.2c0.6-0.2,1.1-0.7,1.7-2.1
			c4.4,1.7,9.2,3.3,14.4,4.8v8.1c-9.2-2.2-14.4-3.3-15.5-3.1c0.2-0.7,0.2-1.3,0.2-1.7c-0.2-0.4-0.4-0.6-0.7-0.7v0.2l-6.7,1.3
			c-0.2,0.4-0.2,0.6-0.2,0.6c0,0.2,0.9,0.7,2.4,1.9c1.9,1.3,3,1.9,3.6,1.7c0.4,0,0.7-0.7,1.3-2.1l15.7,2.6v7.3c-3.4,0-9.3,0-18,0
			c0-0.7,0-1.3-0.2-1.9c-0.2-0.4-0.4-0.6-0.9-0.6l0.2,0.2l-6.4,2.4v-0.6c-0.2,0.4-0.2,0.6-0.2,0.6l0.2,0.2c-0.1,0.2-0.2,0.4-0.2,0.6
			c0,0,0.9,0.4,2.8,1.3c1.5,0.6,2.6,0.9,3.4,1.1c0,0,0,0,0.2,0c0.6-0.2,0.7-0.9,0.9-2.4c5.1,0.2,10.5,0.2,16.5,0h1.7v6.6l-0.9,0.2
			c-5.8,0.7-11.2,1.7-16.1,2.6c-0.6-1.5-0.9-2.1-1.3-2.2c0,0,0,0-0.2,0c0,0,0,0-0.2,0c-0.6,0.2-1.7,0.7-3,1.7
			c-1.7,0.9-2.4,1.7-2.6,1.9c0,0,0.2,0.2,0.4,0.6l6.6,1.3v0.2c0.4-0.2,0.7-0.4,0.7-0.6c0-0.6,0-1.1-0.2-1.9
			c7.7-1.5,13.3-2.4,16.8-2.8v7.7l-12.9,4.4c-0.7-1.3-1.3-1.9-1.7-1.9c-0.6,0-1.5,0.7-3.2,2.2c-1.3,1.3-2.1,2.1-2.1,2.2
			s0,0.2,0.2,0.4l6.9,0.4c0.4,0,0.6-0.4,0.6-0.7c0-0.4,0-0.7-0.4-1.5c0.9-0.2,5.2-1.8,12.5-4.8v8.7c-0.4,0.6-0.2,0.7,0.2,0.7
			c0.6,0,0.6,0,0.4-0.2c0,0,0-0.2,0.2-0.4l5,0.2c0.2,0,0.4,0,0.6,0c0.2,0,0.2,0,0.2,0v-0.2v-0.6v-7.7H160
			c-0.1,7.6-0.1,15.2-0.1,22.8c0,2.3,0,4.4,0,6.7l-0.4-0.5l-0.2,0.4c0,0,0,0,0.4,0.2c0,0,0.1,0.1,0.2,0.1c0,0.2,0,0.5,0,0.7
			l-0.6,0.7l0.2,0.7l0.4-1.3v0.7v0.2c0,2.5,0,5.2,0,7.7c0,1.7,0,3.4,0,5h9.7v-28v-0.4v-15.7h38.9v0.9h0.2v7.5c0.2,0,0.4,0,0.6,0
			l5-0.2c0,0.2,0,0.4,0.2,0.4c-0.4,0.2-0.2,0.2,0.2,0.2c0.6,0,0.6-0.2,0.4-0.7v-8.5c0.8,0.4,2,0.9,3.9,1.6c0.2,0.1,0.3,0.1,0.6,0.2
			l-7.6,51.9c-0.7,0.6-1.5,1.2-2.2,2c-2.6,3-4.3,6.6-5,10.3c0,0.6-0.2,1.3-0.2,2.1c-0.4,2.2-0.4,4.5,0,6.5c0.4,2.1,1.5,3.5,3.4,4.1
			c0.1,0,0.3,0,0.4,0l-1.3,8.9c-3.4,0.4-6.7,1.1-9.9,1.9c-3.4,1.1-6.5,2.8-9.4,5l-10.7-4.3l1.3-4.1c0.6-0.2,2.4-0.6,5.4-1.3
			c2.8-0.6,6.4-0.7,10.5-0.4c3.9,0.2,6.9,0.7,8.8,1.1c1.7,0.4,2.8,0.6,3.4,0.9c0.2,0,0.2,0,0.4,0c-0.7-0.7-1.5-1.5-2.2-2.4
			c-1.3-1.1-2.1-2.6-2.2-4.5c-0.4-2.1-0.4-3-0.4-3.2l-0.2,0.2l-16.5,3.5c1.7-1.3,3.4-3.2,4.9-5.4c1.5-2.4,2.8-4.3,3.6-5.6
			c0.9-1.5,1.1-2.8,0.7-4.1c-1.7-2.6-3.6-4.7-6.2-6.9c-2.4-2.1-4.7-3.2-6.4-3.4c-1.9,0-3.2,0.2-3.9,0.9c-0.9,0.7-1.7,1.9-2.1,3.2
			c-0.6,1.5-1.1,2.8-1.5,4.5c-0.9,2.2-1.7,4.5-2.2,7.1c-0.6,1.3-0.9,2.8-1.3,4.3c-3.7-1.3-7.3-1.3-11,0c-0.6-1.5-0.7-3-1.3-4.3
			c-0.6-2.6-1.3-4.9-2.2-7.1c-0.4-1.7-0.9-3-1.5-4.5c-0.6-1.3-1.1-2.4-2.1-3.2c-0.7-0.7-2.1-0.9-3.9-0.9c-1.7,0.2-3.9,1.3-6.4,3.4
			c-2.6,2.2-4.7,4.3-6.2,6.9c-0.4,1.3-0.2,2.6,0.7,4.1c0.7,1.3,2.1,3.2,3.6,5.6c1.5,2.2,3.2,4.1,4.9,5.4l-16.5-3.5l-0.2-0.2
			c0,0.2,0,1.1-0.4,3.2c-0.4,1.9-1.1,3.4-2.2,4.5c-0.9,0.9-1.7,1.7-2.1,2.4c0,0,0,0,0.2,0c0.4-0.4,1.5-0.6,3.4-0.9
			c1.9-0.4,4.9-0.9,9-1.1c3.9-0.4,7.5-0.2,10.3,0.4c3,0.7,4.7,1.1,5.4,1.3l1.3,4.1l-10.7,4.3c-2.8-2.2-6-3.9-9.4-5
			c-3.6-0.9-7.1-1.7-10.9-2.1c-4.7,0.2-8.6,0.9-11.4,2.1c-3,1.3-5,3-6.2,5h5.4c-0.9,1.3-1.9,2.2-2.8,3.2c-1.5,1.1-2.8,2.4-4.1,3.7
			c0.2,0,0.2,0,0.4,0c0.2,0,0.4,0,0.7,0c2.8,0.2,5.6,0.2,8-0.2c2.6-0.6,5.4-0.9,8-1.5c2.4,0,4.9,0.6,7.1,1.5
			c-1.9,0.7-3.9,1.9-5.8,3.4c-0.7,0.6-1.5,1.1-2.2,1.9c-0.6,0.4-0.9,0.7-1.3,1.3c3,2.6,6,5.1,9,7.7l6.7-9.5c6,3.2,10.9,4.5,14.8,3.6
			c3-0.6,5.2-1.9,6.9-3.9c1.3-1.7,2.2-3.4,3.4-5.2c1.1-2.2,2.2-4.7,3.2-6.9l1.7,1.9l1.1-0.2l1.1,0.2l1.5-1.9
			c0.9,2.2,2.1,4.7,3.2,6.9c0.9,1.9,2.1,3.6,3.4,5.2c1.7,2.1,3.9,3.4,6.9,3.9c3.9,0.9,8.8-0.4,14.8-3.6l6.6,9.4l-0.1,0.7h58.7
			l9.9-67.7c0.5-0.4,1.1-0.7,1.6-1.2C276,286.1,278.1,283.3,279.6,279.9z M101.2,202.3c-0.4,0-0.4,0-0.6,0v0.4c0.2,0,0.2,0,0.2,0.2
			c-0.2,0.4-0.6,0.6-0.7,0.7c-1.3-1.5-2.2-2.1-2.8-2.1h4.1C101.3,201.9,101.2,202.1,101.2,202.3z M99.7,213.1c-0.4,0-0.6,0-0.6,0.2
			v0.4c0.2,0,0.2,0,0.2,0c-0.2,0.6-0.4,0.7-0.6,0.9c-1.5-1.1-2.6-1.7-3.2-1.5V213l4.3-0.6C99.7,212.8,99.7,213,99.7,213.1z
			 M97.2,224.4c-0.4,0-0.4,0-0.6,0.2l0.2,0.4c0,0,0,0,0.2,0c-0.2,0.4-0.4,0.9-0.4,0.9c-1.9-0.7-3-1.1-3.6-0.9l4.1-1.5
			C97.2,223.8,97.2,224,97.2,224.4z M94.2,235.2h0.2c0.6,0,1.5-0.6,3.2-1.7c0.2,0.2,0.4,0.4,0.6,0.9c-0.2,0-0.2,0-0.2,0l-0.2,0.6
			c0.2,0,0.2,0,0.6,0c0,0.2,0.2,0.6,0.2,0.7L94.2,235.2z M98.5,246.4c0.6,0,1.5-0.7,3-2.1c0.2,0,0.4,0.2,0.7,0.7c-0.2,0-0.2,0-0.2,0
			v0.4c0,0,0.2,0,0.4,0c0.2,0.4,0.4,0.6,0.4,0.9H98.5z M159.7,153.3c0,0.7,0,1.5,0,2.4c0,0,0,0.2,0,0.4H158v3.4h-1.1l-14.8-12.9
			l1.9-2.6l-2.4-2.2l14.4-13.1h0.9l0.4,3l0.7,0.7h2.1C159.9,139.5,159.9,146.4,159.7,153.3z M168.1,118.7h-6.9v-1.3h6.9V118.7z
			 M149.1,321.8c-0.7,0-1.1-0.6-1.7-1.9c-0.4-1.3-0.6-3.9-0.4-8c2.8,2.4,4.7,4.9,5.4,7.1c0.4,1.3,0.9,2.4,1.3,3.7L149.1,321.8z
			 M148.7,338.3c1.3-1.5,4.1-2.8,7.7-4.5l2.1,0.9C155.8,337.3,152.4,338.5,148.7,338.3z M161.2,333.6c-0.9-0.9-1.9-2.2-2.2-3.9
			c-0.9-2.4-1.7-4.7-2.4-6.9c1.1-0.4,1.9,0.2,2.4,2.1c0.4,1.3,0.7,2.6,1.3,4.1c0.7,1.5,1.3,3.2,1.5,4.9
			C161.8,333.6,161.6,333.6,161.2,333.6z M178.4,319c0.7-2.2,2.6-4.7,5.6-7.1c0,4.1,0,6.7-0.6,8c-0.4,1.3-0.9,1.9-1.7,1.9l-4.9,0.9
			C177.5,321.4,177.9,320.3,178.4,319z M176.2,322.2v0.2H176L176.2,322.2z M169.6,333.6c-0.4,0-0.6,0-0.6,0.2
			c0.2-1.7,0.7-3.4,1.5-4.9c0.6-1.5,0.9-2.8,1.3-4.1c0.4-1.9,1.3-2.4,2.4-2.1c-0.7,2.2-1.5,4.5-2.4,6.9
			C171.5,331.3,170.6,332.7,169.6,333.6z M172.4,334.7l2.1-0.9c3.6,1.7,6.2,3,7.7,4.5C178.4,338.5,175.1,337.3,172.4,334.7z
			 M204.9,343.4c-0.7-0.4-1.5-0.8-2.2-1.1c0.8-0.3,1.6-0.6,2.5-0.8L204.9,343.4z M169.6,132.4l2.6-0.6l0.2-3.2h0.9l14.6,13.1
			l-2.6,2.2l2.1,2.6l-14.8,12.9l-0.6-0.2h-0.4v-3c-0.4,0-1.1,0-2.1,0V132.4z M219.7,242.2l-4.6-1.9v-7.9c1.7,0.1,3.7,0.3,5.9,0.5
			L219.7,242.2z M221.1,232.3c-1.9-0.2-3.8-0.5-6-0.8v-6.4l7.1-0.2L221.1,232.3z M222.3,224c-3.9,0.1-6.2,0.2-7.2,0.5v-6.9
			c1.3,0,4.1-0.4,8.3-1.2L222.3,224z M223.6,215.5c-2.9,0.5-5.8,1.1-8.5,1.6V209c1.3-0.2,4.6-1.4,10-3.6L223.6,215.5z M225.1,204.7
			l-10,3.5v-6.9v-0.2c0-0.2,0-0.2,0-0.2c-0.2-0.2,0-0.2,0-0.4c0,0-0.4,0-0.6,0c-0.2,0-0.2,0-0.2,0c-0.2,0-0.4,0-0.6,0h-5
			c-0.2,0-0.4,0.2-0.6,0.4c0,0,0,0,0,0.2c-0.2,0-0.2,0.2-0.2,0.4v8h-38.4v-39.5v-0.4h1.9c0-0.2,0.2-0.2,0.2-0.2v-1.3
			c0.7-0.4,1.3-0.9,1.9-1.5c0.7-0.6,0.9-0.9,1.1-0.9c0-0.2,0-0.2,0.2-0.2c1.1-0.9,2.6-2.2,4.5-3.9c7.1-6.4,11.2-10.1,12.2-11
			l1.3,1.3l3.4-2.8l8.4,7.9c-1.1,1.3-2.1,3-2.4,4.9c-0.2,0.6-0.4,1.1-0.4,1.7c-0.9,5.4,0.4,9.9,3.9,14c0.9,0.9,1.9,1.7,3,2.2
			c3.4,2.1,7.1,3,11.2,2.6c2.6-0.4,5.1-1.3,7.3-2.6c0.6-0.4,1.2-0.8,1.7-1.2L225.1,204.7z"/>
		<path class="st1" d="M287.1,326.7c0.6,0,0.9,0,1.3,0.2c0.4,0,0.6,0.2,1.1,0.4l1.1-6.4c-0.6-0.2-1.3-0.4-1.9-0.6
			c-0.7-0.2-1.7-0.2-2.1-0.2c-3.7,0-7.1,1.7-9.3,4.7c-2.4,3.2-3.6,7.1-3.6,12.2c0,3.4,0.7,5.8,2.4,7.5c1.5,1.7,3.6,2.4,6.7,2.4
			c0.6,0,1.3,0,1.9-0.2c0.6-0.2,0.9-0.2,1.3-0.4l1.5-6.2c-0.6,0.2-0.9,0.2-1.5,0.4c-0.2,0-0.6,0-0.7,0c-1.3,0-2.2-0.4-3-1.1
			c-0.4-0.9-0.9-2.2-0.9-3.9c0-2.8,0.7-4.9,1.7-6.4C284.1,327.4,285.6,326.7,287.1,326.7z"/>
		<path class="st1" d="M298,327.8c-2.6,0-4.9,1.1-6.4,3.2c-1.7,2.1-2.4,4.7-2.4,8c0,2.6,0.7,4.7,2.1,6c1.3,1.3,3.2,2.1,5.8,2.1
			c2.6,0,4.7-1.1,6.4-3.2c1.5-2.1,2.2-4.7,2.2-8c0-2.6-0.7-4.7-1.9-6C302.5,328.5,300.6,327.8,298,327.8z M298.3,339.6
			c-0.4,1.3-0.9,2.1-1.5,1.9c-0.4,0-0.6-0.2-0.7-0.4c-0.4-0.4-0.6-0.9-0.6-1.5c0-1.7,0.4-3.2,0.9-4.3c0.4-1.3,0.9-2.1,1.5-2.1
			c0.4,0,0.7,0.4,0.9,0.6c0.2,0.4,0.4,0.9,0.4,1.5C299.3,337,298.9,338.5,298.3,339.6z"/>
		<polygon class="st1" points="310.7,318.4 306.2,346.7 312.7,346.7 317.2,318.4 		"/>
		<path class="st1" d="M325.5,327.8c-2.8,0-5.1,1.1-6.6,3.2c-1.7,1.9-2.6,4.7-2.6,8c0,2.6,0.7,4.5,2.1,6c1.3,1.3,3.2,2.1,5.6,2.1
			c2.2,0,4.1-0.6,5.4-1.9c1.5-1.3,2.1-2.8,2.2-5h-5.4c-0.2,0.6-0.2,1.1-0.4,1.5c-0.4,0.4-0.9,0.6-1.5,0.6c-0.6,0-1.1-0.2-1.3-0.6
			c-0.4-0.2-0.6-0.7-0.6-1.3c0-0.2,0-0.6,0.2-0.9c0-0.2,0-0.7,0-1.3h9.5c0.2-0.6,0.2-1.3,0.4-1.9c0-0.6,0-1.3,0-1.7
			c0-2.2-0.7-3.6-1.9-4.9C329.4,328.4,327.7,327.8,325.5,327.8z M327.2,334.5c0,0,0,0.2-0.2,0.6h-3.7c0.2-1.1,0.6-1.9,0.9-2.4
			c0.4-0.6,0.9-0.7,1.5-0.7c0.4,0,0.7,0.2,1.1,0.7c0.2,0,0.4,0.6,0.4,1.1C327.2,334,327.2,334.1,327.2,334.5z"/>
		<path class="st1" d="M344.9,328.4l-0.2,1.9c-0.6-0.9-1.1-1.5-1.7-1.9c-0.4-0.4-1.1-0.6-2.1-0.6c-2.1,0-3.9,1.1-5,3.5
			c-1.3,2.2-2.1,4.9-2.1,8.2c0,2.1,0.4,3.4,1.1,4.3c0.7,1.1,1.9,1.7,3.2,1.7c0.9,0,1.7-0.2,2.4-0.6c0.7-0.4,1.3-0.9,1.9-1.9
			l-0.4,3.2c-0.2,0.7-0.4,1.3-0.7,1.9c-0.4,0.4-0.9,0.4-1.5,0.4c-0.4,0-0.7,0-0.9-0.2c-0.2-0.2-0.4-0.6-0.4-0.9v-0.4H333
			c0,0.2,0,0.2,0,0.4s0,0.2,0,0.4c0,1.9,0.6,3,1.7,3.9c1.1,0.9,2.6,1.3,5,1.3c3,0,4.9-0.6,6.2-1.5c1.3-0.9,2.2-3,2.6-6l2.8-17.2
			H344.9z M343.1,338.8c-0.4,1.1-0.7,1.7-1.3,1.7c-0.6,0-0.7-0.2-0.9-0.6c-0.2-0.4-0.2-0.9-0.4-1.7c0-1.3,0.2-2.6,0.7-3.7
			c0.6-0.9,1.1-1.7,1.5-1.5c0.4,0,0.7,0.2,0.9,0.6c0.2,0.2,0.2,0.9,0.2,1.5C343.8,336.6,343.6,337.7,343.1,338.8z"/>
		<path class="st1" d="M361,319.2c-0.6-0.6-1.3-0.9-2.2-0.9c-1.1,0-2.1,0.4-3,1.3c-0.7,0.9-1.1,2.1-1.1,3.2c0,0.9,0.4,1.9,0.9,2.4
			c0.6,0.6,1.3,0.9,2.2,0.9c0.9,0,1.9-0.4,2.8-1.3c0.8-0.9,1.1-2.1,1.1-3.2C361.8,320.7,361.6,319.8,361,319.2z"/>
		<polygon class="st1" points="351.1,346.5 357.6,346.5 360.5,328.4 353.9,328.4 		"/>
		<path class="st1" d="M370.2,327.8c-2.8,0-4.9,1.1-6.5,3.2c-1.5,2.1-2.2,4.7-2.2,8c0,2.6,0.7,4.7,2.1,6c1.3,1.3,3.2,2.1,5.8,2.1
			c2.4,0,4.7-1.1,6.2-3.2c1.5-2.1,2.4-4.7,2.4-8c0-2.6-0.6-4.7-2.1-6C374.7,328.5,372.6,327.8,370.2,327.8z M370.6,339.6
			c-0.4,1.3-1.1,2.1-1.5,1.9c-0.6,0-0.7-0.2-0.7-0.4c-0.4-0.4-0.6-0.9-0.6-1.5c0-1.7,0.4-3.2,0.8-4.3c0.6-1.3,1.1-2.1,1.7-2.1
			c0.4,0,0.6,0.4,0.9,0.6c0.2,0.4,0.2,0.9,0.2,1.5C371.3,337,371.1,338.5,370.6,339.6z"/>
		<path class="st1" d="M399.9,320.1c-1.9,0-3.4,0.4-4.7,1.1c-1.3,0.8-2.6,1.9-3.6,3.2c-1.1,1.7-2.1,3.6-2.6,5.8
			c-0.6,2.4-0.9,4.7-0.9,6.9c0,3.2,0.7,5.4,2.2,7.1c1.7,1.9,3.6,2.6,6,2.6c1.5,0,3.2-0.4,4.7-0.9c1.3-0.8,2.4-1.9,3.4-3.4
			c1.1-1.7,2.1-3.4,2.6-5.8c0.6-2.2,0.9-4.5,1.1-6.9c0-3-0.7-5.4-2.4-7.1C404.2,321.1,402.4,320.1,399.9,320.1z M400.3,334
			c-0.2,1.5-0.6,3-0.9,4.1c-0.4,0.9-0.7,1.5-1.1,2.1c-0.4,0.4-0.6,0.6-1.1,0.6c-0.6,0-1.1-0.2-1.3-0.7c-0.2-0.4-0.4-1.1-0.4-2.1
			c0-1.5,0.2-3,0.4-4.7c0.2-1.5,0.6-3,0.9-4.1c0.4-0.9,0.7-1.5,1.1-2.1c0.2-0.4,0.7-0.6,1.3-0.6c0.6,0,0.9,0.2,1.1,0.7
			c0.2,0.4,0.4,1.1,0.4,2.2C400.7,330.8,400.5,332.3,400.3,334z"/>
		<path class="st1" d="M420.3,328.5h-2.6l0.6-2.4c0.2-0.9,0.4-1.3,0.6-1.5c0.4-0.6,0.7-0.7,1.3-0.6c0.2-0.2,0.2-0.2,0.4,0
			c0.2,0,0.2,0,0.4,0l0.9-5.4c-0.6-0.2-1.1-0.2-1.5-0.4c-0.6-0.2-1.3-0.2-1.9-0.2c-2.1,0-3.4,0.6-4.5,1.5c-1.1,1.1-1.9,3-2.2,5.4
			l-0.6,3.6h-1.9l-0.9,5.8h1.9l-1.9,12.4h6.7l1.7-12.4h2.6L420.3,328.5z"/>
		<path class="st1" d="M428.7,319.2c-0.4-0.6-1.1-0.9-2.1-0.9c-1.3,0-2.2,0.4-3.2,1.3c-0.6,0.9-0.9,2.1-0.9,3.2
			c0,0.9,0.4,1.9,0.7,2.4c0.6,0.6,1.3,0.9,2.2,0.9c1.1,0,2.1-0.4,3-1.3c0.6-0.9,0.9-2.1,0.9-3.2
			C429.5,320.7,429.3,319.8,428.7,319.2z"/>
		<polygon class="st1" points="418.8,346.5 425.4,346.5 428.4,328.4 421.8,328.4 		"/>
		<path class="st1" d="M439.8,328c-0.6-0.2-0.9-0.2-1.5-0.2c-2.8,0-5.2,1.1-6.9,3.5c-1.5,2.2-2.4,5-2.4,8.8c0,2.2,0.6,3.7,1.5,5
			c1.1,1.3,2.6,1.9,4.7,1.9c0.6,0,1.1,0,1.7-0.2c0.6-0.2,1.3-0.4,1.9-0.6l0.9-5.8c-0.2,0.2-0.6,0.2-0.7,0.4c-0.4,0-0.6,0-0.7,0
			c-0.6,0-1.1-0.2-1.5-0.6c-0.2-0.4-0.4-0.9-0.4-1.9c0-1.3,0.2-2.4,0.7-3.4c0.6-0.9,1.3-1.5,2.1-1.5c0.2,0,0.6,0,0.7,0.2
			c0.4,0,0.6,0.2,0.7,0.4l0.7-5.6C440.9,328.4,440.3,328.2,439.8,328z"/>
		<path class="st1" d="M450.8,319.2c-0.6-0.6-1.3-0.9-2.2-0.9c-1.1,0-2.1,0.4-3,1.3c-0.7,0.9-1.1,2.1-1.1,3.2c0,0.9,0.4,1.9,0.9,2.4
			c0.6,0.6,1.3,0.9,2.2,0.9c0.9,0,1.9-0.4,2.8-1.3c0.7-0.9,1.1-2.1,1.1-3.2C451.6,320.7,451.4,319.8,450.8,319.2z"/>
		<polygon class="st1" points="440.9,346.5 447.4,346.5 450.3,328.4 443.7,328.4 		"/>
		<path class="st1" d="M462.8,328.4l-0.4,2.1c-0.6-0.9-1.1-1.5-1.7-2.1c-0.6-0.4-1.3-0.6-2.2-0.6c-2.1,0-3.9,1.3-5.4,3.7
			c-1.3,2.2-2.1,5.4-2.1,9.2c0,2.1,0.4,3.4,1.3,4.5c0.6,1.3,1.7,1.9,3.2,1.9c0.9,0,1.7-0.2,2.4-0.7c0.6-0.4,1.3-0.9,2.2-1.9
			l-0.4,2.1h6.5l2.8-18.1H462.8z M460.5,339.6c-0.6,1.1-1.1,1.7-1.7,1.7c-0.4,0-0.7-0.2-0.9-0.6c0-0.4-0.2-0.9-0.2-1.7
			c0-1.5,0.2-2.6,0.6-3.9c0.6-1.1,1.1-1.5,1.9-1.5c0.4,0,0.7,0,0.9,0.4c0.2,0.6,0.2,0.9,0.2,1.7
			C461.3,337.3,461.1,338.5,460.5,339.6z"/>
		<polygon class="st1" points="469,346.7 475.5,346.7 480,318.4 473.5,318.4 		"/>
		<path class="st1" d="M501.3,318.4l-1.9,12.2c-0.7-0.9-1.1-1.5-1.7-2.1c-0.6-0.4-1.3-0.4-2.2-0.4c-2.1,0-3.9,1.1-5.4,3.6
			c-1.3,2.2-2.1,5.4-2.1,9.2c0,2.1,0.4,3.6,1.3,4.5c0.6,1.1,1.7,1.7,3.2,1.7c0.9,0,1.7-0.2,2.4-0.6c0.6-0.4,1.3-0.9,2.2-1.9
			l-0.4,2.1h6.5l4.5-28.2H501.3z M497.8,339.8c-0.6,1.1-1.1,1.7-1.7,1.7c-0.6,0-0.9-0.2-1.1-0.6c0-0.4,0-0.9,0-1.5
			c0-1.5,0-3,0.4-3.9c0.6-1.3,1.1-1.9,1.9-1.9c0.4,0,0.6,0.2,0.9,0.4c0.2,0.6,0.4,0.9,0.4,1.7C498.5,337.3,498.3,338.8,497.8,339.8z
			"/>
		<path class="st1" d="M515.5,327.8c-2.8,0-4.9,1.1-6.6,3.2c-1.5,1.9-2.4,4.7-2.4,8c0,2.6,0.6,4.5,1.9,6c1.3,1.3,3.4,2.1,5.6,2.1
			c2.4,0,4.3-0.6,5.4-1.9c1.5-1.3,2.2-2.8,2.4-5h-5.4c-0.2,0.6-0.4,1.1-0.6,1.5c-0.4,0.4-0.9,0.6-1.5,0.6c-0.6,0-0.9-0.2-1.1-0.6
			c-0.6-0.2-0.6-0.7-0.6-1.3c0-0.2,0-0.6,0-0.9c0-0.2,0-0.7,0-1.3h9.7c0.2-0.6,0.2-1.3,0.4-1.9c0-0.6,0-1.3,0-1.7
			c0-2.2-0.7-3.6-2.1-4.9C519.5,328.4,518,327.8,515.5,327.8z M517.4,334.5c0,0,0,0.2-0.2,0.6h-3.7c0-1.1,0.4-1.9,0.7-2.4
			c0.4-0.6,0.9-0.7,1.5-0.7c0.6,0,0.7,0.2,1.3,0.7c0.2,0,0.4,0.6,0.4,1.1C517.4,334,517.4,334.1,517.4,334.5z"/>
		<path class="st1" d="M539.9,320.7l-9.7,26h7.3l1.1-3.9h4.3l-0.2,3.9h7.5l-1.9-26H539.9z M542.9,337.5h-3l3.2-9.5L542.9,337.5z"/>
		<path class="st1" d="M561.6,328.7c-0.9,0.6-1.5,1.3-2.2,2.2l0.2-2.6h-6l-3,18.1h6.7l1.3-8.2c0-1.5,0.7-2.6,1.5-3.2
			c0.6-0.6,1.7-0.9,3.2-0.9h0.4l1.1-6.4C563.6,328,562.5,328.2,561.6,328.7z"/>
		<path class="st1" d="M576,328.4l-0.4,2.1c-0.6-0.9-1.1-1.5-1.7-2.1c-0.4-0.4-1.3-0.6-2.2-0.6c-2.1,0-3.7,1.3-5.2,3.7
			c-1.5,2.2-2.2,5.4-2.2,9.2c0,2.1,0.4,3.4,1.3,4.5c0.6,1.3,1.9,1.9,3.2,1.9c0.9,0,1.7-0.2,2.4-0.7c0.6-0.4,1.5-0.9,2.4-1.9
			l-0.4,2.1h6.4l3-18.1H576z M573.9,339.6c-0.6,1.1-1.3,1.7-1.7,1.7c-0.6,0-0.7-0.2-0.9-0.6c-0.2-0.4-0.4-0.9-0.4-1.7
			c0-1.5,0.2-2.6,0.7-3.9c0.6-1.1,0.9-1.5,1.9-1.5c0.4,0,0.6,0,0.7,0.4c0.2,0.6,0.2,0.9,0.2,1.7
			C574.5,337.3,574.3,338.5,573.9,339.6z"/>
		<path class="st1" d="M593.7,330.2c-0.6-0.9-1.1-1.5-1.7-1.9c-0.6-0.4-1.3-0.6-2.2-0.6c-1.9,0-3.7,1.1-5.1,3.5
			c-1.3,2.2-1.9,4.9-1.9,8.2c0,2.1,0.4,3.4,0.9,4.3c0.7,1.1,1.9,1.7,3.4,1.7c0.9,0,1.7-0.2,2.2-0.6c0.7-0.4,1.3-0.9,1.9-1.9
			l-0.4,3.2c-0.2,0.7-0.4,1.3-0.7,1.9c-0.4,0.4-0.9,0.4-1.3,0.4c-0.4,0-0.7,0-0.9-0.2c-0.4-0.2-0.4-0.6-0.4-0.9v-0.4H582
			c0,0.2,0,0.2,0,0.4s0,0.2,0,0.4c0,1.9,0.6,3,1.5,3.9c1.1,0.9,2.8,1.3,5,1.3c3,0,5-0.6,6.2-1.5c1.3-0.9,2.2-3,2.8-6l2.6-17.2h-6.2
			L593.7,330.2z M592.1,338.8c-0.4,1.1-0.9,1.7-1.5,1.7c-0.6,0-0.7-0.2-0.9-0.6c-0.2-0.4-0.2-0.9-0.4-1.7c0-1.3,0.2-2.6,0.7-3.7
			c0.6-0.9,1.1-1.7,1.7-1.5c0.4,0,0.6,0.2,0.9,0.6c0.2,0.2,0.2,0.9,0.2,1.5C592.8,336.6,592.6,337.7,592.1,338.8z"/>
		<polygon class="st1" points="615.4,320.5 610.9,320.5 608.7,325.9 611.7,325.9 		"/>
		<path class="st1" d="M609.5,327.8c-2.6,0-4.7,1.1-6.4,3.2c-1.5,1.9-2.2,4.7-2.2,8c0,2.8,0.7,4.9,1.9,6c1.3,1.3,3.4,2.1,5.8,2.1
			c2.8,0,4.7-1.1,6.4-3.2c1.7-1.9,2.4-4.7,2.4-8c0-2.8-0.7-4.7-2.1-6C613.9,328.5,612.3,327.8,609.5,327.8z M610,339.8
			c-0.6,1.3-1.1,1.9-1.7,1.9c-0.4,0-0.6-0.2-0.6-0.6c-0.2-0.4-0.4-0.9-0.4-1.5c0-1.5,0.2-3,0.6-4.1c0.6-1.5,1.1-2.2,1.7-1.9
			c0.4,0,0.7,0,0.9,0.2c0.2,0.4,0.2,0.9,0.2,1.7C610.8,337,610.6,338.5,610,339.8z"/>
		<path class="st1" d="M630.4,328c-0.7,0-1.5,0.2-2.2,0.6c-0.9,0.4-1.7,0.9-2.2,1.7l0.2-1.9h-5.8l-2.8,18.1h6.6l1.5-10.7
			c0.2-0.6,0.4-1.1,0.6-1.3c0.2,0,0.6-0.4,0.9-0.6c0.4,0,0.6,0.2,0.7,0.6c0.2,0,0.4,0.4,0.4,0.6c0,0.2,0,0.4-0.2,0.6v0.2l-1.7,10.7
			h6.6l1.9-11.8c0.2-0.6,0.2-1.1,0.2-1.7c0.2-0.4,0.2-0.7,0.2-0.9c0-1.1-0.4-2.2-1.3-3C633,328.4,631.9,328,630.4,328z"/>
		<polygon class="st1" points="652.3,338.3 651.9,328.4 645.2,328.4 647.8,346.1 644.4,352.7 650.6,352.7 662.8,328.4 656.2,328.4 
					"/>
		<polygon class="st1" points="681.1,320.7 673.8,320.7 669.7,346.7 682,346.7 683.2,340.1 677.9,340.1 		"/>
		<path class="st1" d="M696.4,330.4c-0.6-0.9-1.1-1.5-1.7-2.1c-0.6-0.4-1.3-0.6-2.2-0.6c-2.1,0-3.9,1.3-5.4,3.7
			c-1.3,2.2-2.1,5.4-2.1,9.2c0,2.1,0.4,3.4,1.3,4.5c0.6,1.3,1.7,1.9,3.2,1.9c0.9,0,1.7-0.2,2.4-0.7c0.6-0.4,1.3-0.9,2.2-1.9
			l-0.4,2.1h6.5l2.8-18.1h-6.4L696.4,330.4z M694.6,339.6c-0.6,1.1-1.1,1.7-1.7,1.7c-0.4,0-0.7-0.2-0.9-0.6c0-0.4-0.2-0.9-0.2-1.7
			c0-1.5,0.2-2.6,0.6-3.9c0.6-1.1,1.1-1.5,1.9-1.5c0.4,0,0.7,0,0.9,0.4c0.2,0.6,0.2,0.9,0.2,1.7
			C695.3,337.3,695.1,338.5,694.6,339.6z"/>
		<path class="st1" d="M730.7,332.7c0.9-1.5,1.5-3.2,1.5-5.2c0-2.4-0.7-4.1-2.2-5.2c-1.3-0.9-4.1-1.5-7.9-1.5h-6l-4.1,26h7.1
			l1.7-10.7l1.7,10.7h7.5l-3.2-11.4C728.6,334.9,729.7,334,730.7,332.7z M725.1,328.2c0,1.3-0.2,2.2-0.7,3c-0.4,0.6-1.3,0.9-2.4,1.1
			h-0.6l1.1-6.2l0.2-0.2c0.2,0,0.2,0,0.4,0c0.7,0,1.3,0.2,1.5,0.6C725.1,326.9,725.3,327.4,725.1,328.2z"/>
		<path class="st1" d="M741.3,319.2c-0.6-0.6-1.3-0.9-2.2-0.9c-1.1,0-2.1,0.4-3,1.3c-0.7,0.9-1.1,2.1-1.1,3.2c0,0.9,0.4,1.9,0.9,2.4
			c0.6,0.6,1.3,0.9,2.2,0.9c0.9,0,1.9-0.4,2.8-1.3c0.7-0.9,1.1-2.1,1.1-3.2C742.1,320.7,741.9,319.8,741.3,319.2z"/>
		<polygon class="st1" points="731.4,346.5 738,346.5 740.8,328.4 734.2,328.4 		"/>
		<path class="st1" d="M756.1,329.9c-1.3-1.3-3.2-2.1-5.8-2.1c-2.8,0-4.7,1.1-6.4,3.2c-1.7,1.9-2.4,4.7-2.4,8c0,2.6,0.7,4.5,2.1,6
			c1.3,1.3,3.2,2.1,5.8,2.1c2.6,0,4.7-1.1,6.4-3.2c1.5-1.9,2.2-4.7,2.2-8C758,333,757.2,331.2,756.1,329.9z M750.9,339.6
			c-0.6,1.3-1.1,2.1-1.7,1.9c-0.4,0-0.6-0.2-0.7-0.4c-0.2-0.4-0.4-0.9-0.4-1.5c0-1.7,0.2-3,0.7-4.3c0.6-1.3,1.1-2.1,1.7-2.1
			c0.4,0,0.7,0.4,0.7,0.6c0.2,0.4,0.2,0.9,0.2,1.5C751.4,337,751.3,338.3,750.9,339.6z"/>
		<path class="st1" d="M768.3,319.2c-0.6-0.6-1.3-0.9-2.2-0.9c-1.1,0-1.9,0.4-2.8,1.3c-0.7,0.9-1.1,2.1-1.1,3.2
			c0,0.9,0.2,1.9,0.7,2.4c0.6,0.6,1.3,0.9,2.1,0.9c1.3,0,2.2-0.4,3-1.3c0.9-0.9,1.3-2.1,1.3-3.2
			C769.2,320.7,768.8,319.8,768.3,319.2z"/>
		<polygon class="st1" points="757.4,352.7 764,352.7 767.9,328.4 761.2,328.4 		"/>
		<path class="st1" d="M780.1,330.4c-0.6-0.9-1.1-1.5-1.7-2.1c-0.6-0.4-1.3-0.6-2.2-0.6c-2.1,0-3.9,1.3-5.4,3.7
			c-1.3,2.2-2.1,5.4-2.1,9.2c0,2.1,0.4,3.4,1.3,4.5c0.6,1.3,1.7,1.9,3.2,1.9c0.9,0,1.7-0.2,2.4-0.7c0.6-0.4,1.3-0.9,2.2-1.9
			l-0.4,2.1h6.6l2.8-18.1h-6.4L780.1,330.4z M778.2,339.6c-0.6,1.1-1.1,1.7-1.7,1.7c-0.4,0-0.7-0.2-0.9-0.6c0-0.4-0.2-0.9-0.2-1.7
			c0-1.5,0.2-2.6,0.6-3.9c0.6-1.1,1.1-1.5,1.9-1.5c0.4,0,0.7,0,0.9,0.4c0.2,0.6,0.2,0.9,0.2,1.7
			C778.9,337.3,778.8,338.5,778.2,339.6z"/>
	</g>
</g>
<text transform="matrix(1 0 0 1 145.0234 493.9609)"><tspan x="0" y="0" style="font-family:'Futura-CondensedExtraBold'; font-size:56.1621px;">in</tspan><tspan x="47.2" y="0" style="font-family:'Futura-CondensedExtraBold'; font-size:56.1621px;">g</tspan><tspan x="79" y="0" style="font-family:'Futura-CondensedExtraBold'; font-size:56.1621px;">enie</tspan><tspan x="187.4" y="0" style="font-family:'Futura-CondensedExtraBold'; font-size:56.1621px;">r</tspan><tspan x="209.7" y="0" style="font-family:'Futura-CondensedExtraBold'; font-size:56.1621px;">os</tspan><tspan x="0" y="67.4" style="font-family:'Futura-CondensedExtraBold'; font-size:56.1621px;">indu</tspan><tspan x="110.5" y="67.4" style="font-family:'Futura-CondensedExtraBold'; font-size:56.1621px;">s</tspan><tspan x="136" y="67.4" style="font-family:'Futura-CondensedExtraBold'; font-size:56.1621px;">t</tspan><tspan x="155.1" y="67.4" style="font-family:'Futura-CondensedExtraBold'; font-size:56.1621px;">r</tspan><tspan x="177.1" y="67.4" style="font-family:'Futura-CondensedExtraBold'; font-size:56.1621px;">iales</tspan></text>
</svg>
